<?xml version="1.0" encoding="utf-8"?>
<!-- Generator: Adobe Illustrator 16.0.0, SVG Export Plug-In . SVG Version: 6.00 Build 0)  -->
<!DOCTYPE svg PUBLIC "-//W3C//DTD SVG 1.1//EN" "http://www.w3.org/Graphics/SVG/1.1/DTD/svg11.dtd">
<svg version="1.1" id="Layer_1" xmlns="http://www.w3.org/2000/svg" xmlns:xlink="http://www.w3.org/1999/xlink" x="0px" y="0px"
	 width="595.28px" height="841.89px" viewBox="0 0 595.28 841.89" enable-background="new 0 0 595.28 841.89" xml:space="preserve">
<path d="M445.08,309.939v3.451h-0.021l-137.189,86.1l-2.97,1.859l-0.75,0.541c-0.9,0.72-1.65,1.439-2.101,1.919
	c-1.829,1.83-3.36,4.051-4.65,6.601c-1.56,3.33-2.43,6.87-2.58,10.56c-0.03,0.36-0.03,0.75-0.03,1.141l2.85,160.26L165.16,504.31
	l-4.02-2.6c-0.9-0.75-1.68-1.6-2.37-2.53c-1.23-1.59-2.19-3.359-2.82-5.37c-0.45-1.35-0.78-2.76-0.93-4.199
	c-0.03-0.33-0.09-0.69-0.09-1.08v-1.681l0.51-164.07v-0.09c0-0.18,0-0.359,0.03-0.539c0.06-2.91,0.75-5.61,1.89-8.01
	c0.9-1.801,1.98-3.361,3.3-4.681c0.48-0.51,1.02-0.989,1.56-1.44l2.97-1.859l127.83-80.22l2.85-1.8c0.3-0.15,0.63-0.3,0.99-0.45
	c0,0,0,0,0.03,0c1.68-0.72,3.48-1.08,5.34-1.08c1.59,0,3.119,0.27,4.529,0.75c0.96,0.3,1.86,0.69,2.73,1.17
	c0.51,0.3,1.02,0.63,1.47,0.96l134.11,84.449H445.08z"/>
<path fill="#ED1C24" d="M445.57,367.69l-102.78,64.5l0.03,16.739l102.72-64.439l-0.18,50.58L342.85,499.39v16.74l102.48-64.29
	l-0.15,47.01l-115.02,73.66l-15.391,9.86c-2.55-0.92-4.76-2.8-6.3-5.28l0.05-17.02l0.431-137.75l0.06-0.66
	c0.03-1.83,0.42-3.54,1.141-5.04c0.569-1.14,1.199-2.07,2.189-3.03c0.15-0.18,0.3-0.33,0.48-0.479l132.87-83.37L445.57,367.69z"/>
<path fill="#FFFFFF" d="M318.369,277.273L207.07,345.072c-0.18,0.15-0.33,0.33-0.51,0.48c-0.99,0.99-1.65,1.92-2.221,3.031
	c-0.719,1.469-1.141,3.18-1.168,4.949l-0.031,0.689l-0.57,175.502l-14.43-0.061l0.539-175.711c0-0.391,0.031-0.75,0.061-1.109
	c0.121-3.781,1.051-7.381,2.67-10.711c1.35-2.609,2.939-4.83,4.83-6.66c0.479-0.51,1.26-1.23,2.16-1.949l0.779-0.541l3.09-1.859
	l102.541-62.49L318.369,277.273z"/>
<path fill="#FFFFFF" d="M368.408,309.164l-107.639,67.02c-0.18,0.15-0.359,0.299-0.51,0.48l-0.209,0.209
	c-0.781,0.779-1.439,1.74-2.01,2.879c-0.721,1.531-1.141,3.271-1.17,5.102l-0.061,0.719l-0.541,177.902l-14.49-0.061l0.541-178.111
	c0-0.42,0.029-0.779,0.061-1.17c0.148-3.779,1.02-7.381,2.639-10.738c1.291-2.582,2.852-4.801,4.68-6.631
	c0.631-0.691,1.352-1.35,2.25-2.072l0.781-0.568l3.061-1.891l99.088-61.68L368.408,309.164z"/>
</svg>
